<svg width="32" height="32" viewBox="0 0 32 32" fill="none" xmlns="http://www.w3.org/2000/svg">
<path d="M15.9987 9.83594C12.5934 9.83594 9.83472 12.5959 9.83472 15.9999C9.83472 19.4053 12.5934 22.1653 15.9987 22.1653C19.4014 22.1653 22.1627 19.4053 22.1627 15.9999C22.1627 12.5959 19.4014 9.83594 15.9987 9.83594ZM15.9987 20.0053C13.7867 20.0053 11.9934 18.2119 11.9934 16.0013C11.9934 13.7893 13.7867 11.9973 15.9987 11.9973C18.2107 11.9973 20.0014 13.7893 20.0014 16.0013C20.0014 18.2119 18.2107 20.0053 15.9987 20.0053Z" fill="white"/>
<path d="M22.408 11.0465C23.2019 11.0465 23.8454 10.403 23.8454 9.60921C23.8454 8.81539 23.2019 8.17188 22.408 8.17188C21.6142 8.17188 20.9707 8.81539 20.9707 9.60921C20.9707 10.403 21.6142 11.0465 22.408 11.0465Z" fill="white"/>
<path d="M27.3774 8.14817C26.752 6.53617 25.4787 5.2615 23.8667 4.63884C22.9347 4.28817 21.9494 4.10017 20.952 4.07884C19.668 4.02284 19.2614 4.00684 16.0054 4.00684C12.7494 4.00684 12.332 4.00684 11.0587 4.07884C10.064 4.09884 9.07869 4.28684 8.14669 4.63884C6.53335 5.2615 5.26002 6.53617 4.63602 8.14817C4.28535 9.0815 4.09735 10.0655 4.07735 11.0628C4.02002 12.3455 4.00269 12.7522 4.00269 16.0095C4.00269 19.2655 4.00269 19.6802 4.07735 20.9562C4.09735 21.9535 4.28535 22.9375 4.63602 23.8722C5.26135 25.4828 6.53469 26.7575 8.14802 27.3815C9.07602 27.7442 10.0614 27.9495 11.0614 27.9815C12.3454 28.0375 12.752 28.0548 16.008 28.0548C19.264 28.0548 19.6814 28.0548 20.9547 27.9815C21.9507 27.9615 22.936 27.7722 23.8694 27.4228C25.4814 26.7975 26.7547 25.5242 27.38 23.9122C27.7307 22.9788 27.9187 21.9948 27.9387 20.9975C27.996 19.7148 28.0134 19.3082 28.0134 16.0508C28.0134 12.7935 28.0134 12.3802 27.9387 11.1042C27.9214 10.0935 27.7347 9.09217 27.3774 8.14817ZM25.7534 20.8575C25.744 21.6255 25.6054 22.3868 25.3387 23.1082C24.932 24.1575 24.104 24.9868 23.056 25.3895C22.3427 25.6548 21.5907 25.7935 20.8294 25.8042C19.5627 25.8628 19.2054 25.8775 15.9574 25.8775C12.7067 25.8775 12.3747 25.8775 11.084 25.8042C10.3254 25.7948 9.57069 25.6548 8.85869 25.3895C7.80669 24.9882 6.97335 24.1588 6.56669 23.1082C6.30535 22.3962 6.16402 21.6428 6.15202 20.8828C6.09469 19.6162 6.08135 19.2588 6.08135 16.0108C6.08135 12.7615 6.08135 12.4295 6.15202 11.1375C6.16135 10.3695 6.30002 9.6095 6.56669 8.88817C6.97335 7.83617 7.80669 7.00817 8.85869 6.6055C9.57069 6.3415 10.3254 6.2015 11.084 6.19084C12.352 6.1335 12.708 6.1175 15.9574 6.1175C19.2067 6.1175 19.54 6.1175 20.8294 6.19084C21.5907 6.20017 22.3427 6.34017 23.056 6.6055C24.104 7.0095 24.932 7.83884 25.3387 8.88817C25.6 9.60017 25.7414 10.3535 25.7534 11.1135C25.8107 12.3815 25.8254 12.7375 25.8254 15.9868C25.8254 19.2348 25.8254 19.5842 25.768 20.8588H25.7534V20.8575Z" fill="white"/>
</svg>
