<svg width="36" height="36" viewBox="0 0 36 36" fill="none" xmlns="http://www.w3.org/2000/svg">
<circle cx="18" cy="18" r="18" fill="#333333"/>
<path d="M18 8C12.486 8 8 12.486 8 18C8 23.514 12.486 28 18 28C23.514 28 28 23.514 28 18C28 12.486 23.514 8 18 8ZM19 22.915V24H17V22.92C14.661 22.553 14 20.918 14 20H16C16.011 20.143 16.159 21 18 21C19.38 21 20 20.415 20 20C20 19.676 20 19 18 19C14.52 19 14 17.12 14 16C14 14.712 15.029 13.416 17 13.085V12.012H19V13.121C20.734 13.531 21.4 14.974 21.4 16H20.4L19.4 16.018C19.386 15.638 19.185 15 18 15C16.701 15 16 15.516 16 16C16 16.374 16 17 18 17C21.48 17 22 18.88 22 20C22 21.288 20.971 22.584 19 22.915Z" fill="white"/>
</svg>
