<svg width="36" height="36" viewBox="0 0 36 36" fill="none" xmlns="http://www.w3.org/2000/svg">
<circle cx="18" cy="18" r="18" fill="#333333"/>
<path d="M26.0973 16.2969L24.8345 12.5086C24.457 11.376 23.4019 10.6154 22.2084 10.6154H13.7917C12.5982 10.6154 11.5431 11.376 11.1656 12.5086L9.90283 16.2969C9.23729 16.5757 8.76929 17.2329 8.76929 18V22.6154C8.76929 23.2966 9.14221 23.8855 9.69236 24.2058V25.2895V26.3077C9.69236 26.8181 10.105 27.2307 10.6154 27.2307H11.5385C12.049 27.2307 12.4616 26.8181 12.4616 26.3077V24.4615H23.5385V26.3077C23.5385 26.8181 23.9511 27.2307 24.4616 27.2307H25.3847C25.8951 27.2307 26.3078 26.8181 26.3078 26.3077V24.2058C26.8579 23.8855 27.2308 23.2975 27.2308 22.6154V18C27.2308 17.2329 26.7628 16.5757 26.0973 16.2969ZM13.7917 12.4615H22.2074C22.6053 12.4615 22.9579 12.7144 23.0834 13.0929L24.1044 16.1538H23.3714H12.6287H11.8957L12.9157 13.0929C13.0422 12.7144 13.3948 12.4615 13.7917 12.4615ZM12.0001 21.6923C11.2357 21.6923 10.6154 21.072 10.6154 20.3077C10.6154 19.5434 11.2357 18.923 12.0001 18.923C12.7644 18.923 13.3847 19.5434 13.3847 20.3077C13.3847 21.072 12.7644 21.6923 12.0001 21.6923ZM24.0001 21.6923C23.2357 21.6923 22.6154 21.072 22.6154 20.3077C22.6154 19.5434 23.2357 18.923 24.0001 18.923C24.7644 18.923 25.3847 19.5434 25.3847 20.3077C25.3847 21.072 24.7644 21.6923 24.0001 21.6923Z" fill="white"/>
</svg>
