<svg width="36" height="36" viewBox="0 0 36 36" fill="none" xmlns="http://www.w3.org/2000/svg">
<circle cx="18" cy="18" r="18" fill="#333333"/>
<path d="M25.295 14.8487C25.2498 14.7508 25.1935 14.6576 25.1141 14.5782L19.5757 9.03975C19.4963 8.96036 19.403 8.90406 19.3052 8.85883C19.2775 8.8459 19.248 8.83852 19.2184 8.82836C19.1409 8.80252 19.0615 8.7859 18.9794 8.78129C18.96 8.77944 18.9424 8.76929 18.923 8.76929H12.4615C11.4434 8.76929 10.6154 9.59729 10.6154 10.6154V25.3847C10.6154 26.4028 11.4434 27.2308 12.4615 27.2308H23.5384C24.5566 27.2308 25.3846 26.4028 25.3846 25.3847V15.2308C25.3846 15.2114 25.3744 15.1939 25.3726 15.1736C25.368 15.0914 25.3523 15.0121 25.3255 14.9345C25.3163 14.905 25.308 14.8764 25.295 14.8487ZM22.2332 14.3077H19.8461V11.9207L22.2332 14.3077ZM12.4615 25.3847V10.6154H18V15.2308C18 15.7413 18.4126 16.1539 18.923 16.1539H23.5384L23.5403 25.3847H12.4615Z" fill="white"/>
<path d="M14.3077 18H21.6924V19.8462H14.3077V18ZM14.3077 21.6924H21.6924V23.5385H14.3077V21.6924ZM14.3077 14.3077H16.1539V16.1539H14.3077V14.3077Z" fill="white"/>
</svg>
