<svg width="36" height="36" viewBox="0 0 36 36" fill="none" xmlns="http://www.w3.org/2000/svg">
<circle cx="18" cy="18" r="18" fill="#333333"/>
<path d="M25.148 13.971C24.789 13.372 24.132 13 23.434 13H21V11C21 10.447 20.553 10 20 10H10C8.897 10 8 10.897 8 12V22C8 22.746 8.416 23.391 9.023 23.734C9.146 25.553 10.65 27 12.5 27C14.259 27 15.704 25.691 15.949 24H19.051C19.296 25.691 20.741 27 22.5 27C24.259 27 25.704 25.691 25.949 24H26C27.103 24 28 23.103 28 22V19C28 18.818 27.951 18.641 27.857 18.485L25.148 13.971ZM21 15H23.434L25.234 18H21V15ZM12.5 25C11.673 25 11 24.327 11 23.5C11 22.673 11.673 22 12.5 22C13.327 22 14 22.673 14 23.5C14 24.327 13.327 25 12.5 25ZM22.5 25C21.673 25 21 24.327 21 23.5C21 22.673 21.673 22 22.5 22C23.327 22 24 22.673 24 23.5C24 24.327 23.327 25 22.5 25Z" fill="white"/>
</svg>
