<svg width="36" height="36" viewBox="0 0 36 36" fill="none" xmlns="http://www.w3.org/2000/svg">
<circle cx="18" cy="18" r="18" fill="#333333"/>
<path d="M26.3077 10.6154H11.5385H10.6154H8.76923V12.4615H10.6154H10.8923L14.1425 21.3997C14.4055 22.127 15.1034 22.6154 15.8769 22.6154H23.5385V20.7692H15.8769L15.2049 18.923H23.5385C23.9077 18.923 24.2418 18.7034 24.3868 18.3637L27.156 11.9021C27.2788 11.6169 27.2492 11.2901 27.0785 11.0307C26.9068 10.7714 26.6178 10.6154 26.3077 10.6154Z" fill="white"/>
<path d="M16.6154 26.3077C17.3801 26.3077 18 25.6878 18 24.9231C18 24.1584 17.3801 23.5385 16.6154 23.5385C15.8507 23.5385 15.2308 24.1584 15.2308 24.9231C15.2308 25.6878 15.8507 26.3077 16.6154 26.3077Z" fill="white"/>
<path d="M22.1538 26.3077C22.9185 26.3077 23.5385 25.6878 23.5385 24.9231C23.5385 24.1584 22.9185 23.5385 22.1538 23.5385C21.3891 23.5385 20.7692 24.1584 20.7692 24.9231C20.7692 25.6878 21.3891 26.3077 22.1538 26.3077Z" fill="white"/>
</svg>
