<svg width="20" height="20" viewBox="0 0 20 20" fill="none" xmlns="http://www.w3.org/2000/svg">
<path d="M18.9471 6.30499C18.9361 5.54799 18.7961 4.79699 18.5281 4.08899C18.0591 2.87999 17.1041 1.92399 15.8951 1.45599C15.1961 1.19299 14.4571 1.05199 13.7091 1.03599C12.7471 0.992988 12.4421 0.980988 10.0001 0.980988C7.55807 0.980988 7.24507 0.980988 6.29007 1.03599C5.54307 1.05199 4.80407 1.19299 4.10507 1.45599C2.89607 1.92399 1.94007 2.87999 1.47207 4.08899C1.20907 4.78799 1.06707 5.52699 1.05307 6.27399C1.01007 7.23699 0.99707 7.54199 0.99707 9.98399C0.99707 12.426 0.99707 12.738 1.05307 13.694C1.06807 14.442 1.20907 15.18 1.47207 15.881C1.94107 17.089 2.89607 18.045 4.10607 18.513C4.80207 18.785 5.54107 18.939 6.29107 18.963C7.25407 19.006 7.55907 19.019 10.0011 19.019C12.4431 19.019 12.7561 19.019 13.7111 18.963C14.4581 18.948 15.1971 18.807 15.8971 18.544C17.1061 18.075 18.0611 17.119 18.5301 15.911C18.7931 15.211 18.9341 14.473 18.9491 13.724C18.9921 12.762 19.0051 12.457 19.0051 10.014C19.0031 7.57199 19.0031 7.26199 18.9471 6.30499ZM9.99407 14.602C7.44007 14.602 5.37107 12.533 5.37107 9.97899C5.37107 7.42499 7.44007 5.35599 9.99407 5.35599C12.5461 5.35599 14.6171 7.42499 14.6171 9.97899C14.6171 12.533 12.5461 14.602 9.99407 14.602ZM14.8011 6.26299C14.2041 6.26299 13.7231 5.78099 13.7231 5.18499C13.7231 4.58899 14.2041 4.10699 14.8011 4.10699C15.3961 4.10699 15.8781 4.58899 15.8781 5.18499C15.8781 5.78099 15.3961 6.26299 14.8011 6.26299Z" fill="black"/>
</svg>
