<svg width="52" height="52" viewBox="0 0 52 52" fill="none" xmlns="http://www.w3.org/2000/svg">
<rect x="1" y="1" width="50" height="50" rx="10" stroke="#EB5757"/>
<path d="M33.9369 22.68C33.9259 22.648 33.9169 22.617 33.9039 22.586C33.8549 22.48 33.7939 22.379 33.7079 22.293L27.7079 16.293C27.6219 16.207 27.5209 16.146 27.4149 16.097C27.3849 16.083 27.3529 16.075 27.3209 16.064C27.2369 16.036 27.1509 16.018 27.0619 16.013C27.0399 16.011 27.0209 16 26.9999 16H19.9999C18.8969 16 17.9999 16.897 17.9999 18V34C17.9999 35.103 18.8969 36 19.9999 36H31.9999C33.1029 36 33.9999 35.103 33.9999 34V23C33.9999 22.979 33.9889 22.96 33.9869 22.938C33.9819 22.85 33.9649 22.764 33.9369 22.68ZM30.5859 22H27.9999V19.414L30.5859 22ZM19.9999 34V18H25.9999V23C25.9999 23.553 26.4469 24 26.9999 24H31.9999L32.0019 34H19.9999Z" fill="#EB5757"/>
</svg>
