<svg width="52" height="52" viewBox="0 0 52 52" fill="none" xmlns="http://www.w3.org/2000/svg">
<rect x="1" y="1" width="50" height="50" rx="10" stroke="#EB5757"/>
<path d="M25.0032 21.054V18C25.0032 17.596 24.7602 17.231 24.3862 17.076C24.0132 16.922 23.5822 17.007 23.2962 17.293L16.2962 24.293C15.9052 24.684 15.9052 25.316 16.2962 25.707L23.2962 32.707C23.5832 32.994 24.0132 33.079 24.3862 32.924C24.7602 32.769 25.0032 32.404 25.0032 32V28.904C25.2872 28.884 25.5682 28.875 25.8462 28.875C31.2722 28.875 34.0852 32.447 34.2082 32.605C34.4002 32.859 34.6972 33 35.0032 33C35.1092 33 35.2172 32.983 35.3212 32.948C35.7282 32.811 36.0032 32.43 36.0032 32C36.0032 22.876 27.9172 21.319 25.0032 21.054ZM25.8462 26.875C25.1992 26.875 24.5342 26.92 23.8712 27.008C23.3742 27.075 23.0032 27.499 23.0032 28V29.586L18.4172 25L23.0032 20.414V22C23.0032 22.552 23.4742 23 24.0252 23C24.9352 23 32.1392 23.201 33.7042 29.425C32.0502 28.207 29.4232 26.875 25.8462 26.875Z" fill="#EB5757"/>
</svg>
