<svg width="52" height="52" viewBox="0 0 52 52" fill="none" xmlns="http://www.w3.org/2000/svg">
<rect x="1" y="1" width="50" height="50" rx="10" stroke="#CE1F1D"/>
<path d="M34.0001 17H18.0001C16.8971 17 16.0001 17.897 16.0001 19V33C16.0001 34.103 16.8971 35 18.0001 35H34.0001C35.1031 35 36.0001 34.103 36.0001 33V19C36.0001 17.897 35.1031 17 34.0001 17ZM18.0001 33V19H34.0001L34.0021 33H18.0001Z" fill="#CE1F1D"/>
<path d="M20 21H32V23H20V21ZM20 25H32V27H20V25ZM20 29H26V31H20V29Z" fill="#CE1F1D"/>
</svg>
