<svg width="52" height="52" viewBox="0 0 52 52" fill="none" xmlns="http://www.w3.org/2000/svg">
<rect x="1" y="1" width="50" height="50" rx="10" stroke="#EB5757"/>
<path d="M35 18H17C16.447 18 16 18.447 16 19V33C16 33.553 16.447 34 17 34H35C35.553 34 36 33.553 36 33V19C36 18.447 35.553 18 35 18ZM34 29C32.343 29 31 30.343 31 32H21C21 30.343 19.657 29 18 29V23C19.657 23 21 21.657 21 20H31C31 21.657 32.343 23 34 23V29Z" fill="#EB5757"/>
<path d="M26 22C23.794 22 22 23.794 22 26C22 28.206 23.794 30 26 30C28.206 30 30 28.206 30 26C30 23.794 28.206 22 26 22ZM26 28C24.897 28 24 27.103 24 26C24 24.897 24.897 24 26 24C27.103 24 28 24.897 28 26C28 27.103 27.103 28 26 28Z" fill="#EB5757"/>
</svg>
