<svg width="52" height="52" viewBox="0 0 52 52" fill="none" xmlns="http://www.w3.org/2000/svg">
<rect x="1" y="1" width="50" height="50" rx="10" stroke="#CE1F1D"/>
<path d="M35 19C35 17.897 34.103 17 33 17H19C17.897 17 17 17.897 17 19V33C17 34.103 17.897 35 19 35H33C34.103 35 35 34.103 35 33V19ZM19 33V19H33L33.002 33H19Z" fill="#CE1F1D"/>
<path d="M20.9999 21H22.9979V23H20.9999V21ZM24.9999 21H30.9999V23H24.9999V21ZM20.9999 25H22.9979V27H20.9999V25ZM24.9999 25H30.9999V27H24.9999V25ZM20.9999 29H22.9979V31H20.9999V29ZM24.9999 29H30.9999V31H24.9999V29Z" fill="#CE1F1D"/>
</svg>
