<svg width="52" height="52" viewBox="0 0 52 52" fill="none" xmlns="http://www.w3.org/2000/svg">
<rect x="1" y="1" width="50" height="50" rx="10" stroke="#CE1F1D"/>
<path d="M24.0001 32C25.8461 32 27.5431 31.365 28.8971 30.312L33.2931 34.708L34.7071 33.294L30.3111 28.898C31.3651 27.543 32.0001 25.846 32.0001 24C32.0001 19.589 28.4111 16 24.0001 16C19.5891 16 16.0001 19.589 16.0001 24C16.0001 28.411 19.5891 32 24.0001 32ZM24.0001 18C27.3091 18 30.0001 20.691 30.0001 24C30.0001 27.309 27.3091 30 24.0001 30C20.6911 30 18.0001 27.309 18.0001 24C18.0001 20.691 20.6911 18 24.0001 18Z" fill="#CE1F1D"/>
<path d="M25.412 22.586C25.791 22.966 26 23.468 26 24H28C28 22.935 27.584 21.931 26.826 21.172C25.312 19.66 22.687 19.66 21.174 21.172L22.586 22.588C23.346 21.83 24.656 21.832 25.412 22.586Z" fill="#CE1F1D"/>
</svg>
