<svg width="52" height="52" viewBox="0 0 52 52" fill="none" xmlns="http://www.w3.org/2000/svg">
<rect x="1" y="1" width="50" height="50" rx="10" stroke="#EB5757"/>
<path d="M19 36H33C34.103 36 35 35.103 35 34V23C35 22.447 34.553 22 34 22H31V21C31 18.243 28.757 16 26 16C23.243 16 21 18.243 21 21V22H18C17.447 22 17 22.447 17 23V34C17 35.103 17.897 36 19 36ZM23 21C23 19.346 24.346 18 26 18C27.654 18 29 19.346 29 21V22H23V21ZM19 24H21V26H23V24H29V26H31V24H33L33.002 34H19V24Z" fill="#EB5757"/>
</svg>
