<svg width="52" height="52" viewBox="0 0 52 52" fill="none" xmlns="http://www.w3.org/2000/svg">
<rect x="1" y="1" width="50" height="50" rx="10" stroke="#EB5757"/>
<path d="M33.4941 23.05C32.6761 20.986 31.0151 19.324 28.9501 18.506C28.7131 17.088 27.4851 16 26.0001 16C24.5151 16 23.2871 17.088 23.0501 18.506C20.9851 19.324 19.3241 20.985 18.5061 23.05C17.0881 23.287 16.0001 24.515 16.0001 26C16.0001 27.485 17.0881 28.713 18.5061 28.95C19.3241 31.014 20.9851 32.676 23.0501 33.494C23.2871 34.912 24.5151 36 26.0001 36C27.4851 36 28.7131 34.912 28.9501 33.494C31.0141 32.676 32.6761 31.015 33.4941 28.95C34.9121 28.713 36.0001 27.485 36.0001 26C36.0001 24.515 34.9121 23.287 33.4941 23.05ZM26.0001 18C26.5521 18 27.0001 18.448 27.0001 19C27.0001 19.06 26.9771 19.11 26.9661 19.167C26.9491 19.266 26.9251 19.361 26.8831 19.446C26.8691 19.473 26.8491 19.495 26.8321 19.521C26.7851 19.596 26.7351 19.67 26.6721 19.73C26.6321 19.767 26.5821 19.792 26.5361 19.822C26.4821 19.858 26.4321 19.9 26.3711 19.925C26.2561 19.972 26.1321 20 26.0001 20C25.8681 20 25.7441 19.972 25.6291 19.925C25.5681 19.901 25.5181 19.859 25.4641 19.822C25.4181 19.792 25.3681 19.767 25.3281 19.73C25.2651 19.67 25.2151 19.596 25.1681 19.521C25.1511 19.495 25.1311 19.473 25.1171 19.446C25.0751 19.361 25.0511 19.265 25.0341 19.167C25.0231 19.11 25.0001 19.06 25.0001 19C25.0001 18.448 25.4481 18 26.0001 18ZM19.0001 25C19.0601 25 19.1101 25.023 19.1671 25.034C19.2661 25.051 19.3611 25.075 19.4461 25.117C19.4731 25.131 19.4951 25.151 19.5211 25.168C19.5961 25.215 19.6701 25.265 19.7301 25.328C19.7671 25.368 19.7921 25.418 19.8221 25.464C19.8581 25.518 19.9001 25.568 19.9251 25.629C19.9721 25.744 20.0001 25.868 20.0001 26C20.0001 26.132 19.9721 26.256 19.9251 26.371C19.9011 26.432 19.8591 26.482 19.8221 26.536C19.7921 26.582 19.7671 26.632 19.7301 26.672C19.6701 26.735 19.5961 26.785 19.5211 26.832C19.4951 26.849 19.4731 26.869 19.4461 26.883C19.3611 26.925 19.2651 26.949 19.1671 26.966C19.1101 26.977 19.0601 27 19.0001 27C18.4481 27 18.0001 26.552 18.0001 26C18.0001 25.448 18.4481 25 19.0001 25ZM26.0001 34C25.4481 34 25.0001 33.552 25.0001 33C25.0001 32.94 25.0231 32.89 25.0341 32.833C25.0511 32.734 25.0751 32.639 25.1171 32.554C25.1311 32.527 25.1511 32.505 25.1681 32.479C25.2151 32.404 25.2651 32.33 25.3281 32.27C25.3681 32.233 25.4181 32.208 25.4641 32.178C25.5181 32.142 25.5681 32.1 25.6291 32.075C25.7441 32.028 25.8681 32 26.0001 32C26.1321 32 26.2561 32.028 26.3711 32.075C26.4321 32.099 26.4821 32.141 26.5361 32.178C26.5821 32.208 26.6321 32.233 26.6721 32.27C26.7351 32.33 26.7851 32.404 26.8321 32.479C26.8491 32.505 26.8691 32.527 26.8831 32.554C26.9251 32.639 26.9491 32.735 26.9661 32.833C26.9771 32.89 27.0001 32.94 27.0001 33C27.0001 33.552 26.5521 34 26.0001 34ZM28.5831 31.488C28.5771 31.477 28.5661 31.469 28.5611 31.459C28.3131 31.048 27.9731 30.704 27.5651 30.452C27.5111 30.419 27.4561 30.392 27.3991 30.362C27.2451 30.279 27.0831 30.212 26.9131 30.157C26.8491 30.136 26.7851 30.113 26.7191 30.096C26.4861 30.039 26.2481 30 26.0001 30C25.7521 30 25.5141 30.039 25.2821 30.097C25.2161 30.114 25.1521 30.136 25.0871 30.158C24.9181 30.213 24.7561 30.28 24.6021 30.363C24.5461 30.392 24.4901 30.42 24.4361 30.453C24.0281 30.705 23.6881 31.049 23.4401 31.46C23.4341 31.471 23.4231 31.479 23.4181 31.489C22.1501 30.887 21.1141 29.851 20.5131 28.584C20.5241 28.578 20.5321 28.567 20.5421 28.562C20.9531 28.314 21.2971 27.974 21.5491 27.566C21.5821 27.512 21.6101 27.456 21.6391 27.4C21.7221 27.246 21.7891 27.084 21.8441 26.915C21.8651 26.85 21.8881 26.786 21.9051 26.72C21.9611 26.486 22.0001 26.248 22.0001 26C22.0001 25.752 21.9611 25.514 21.9031 25.282C21.8861 25.216 21.8641 25.152 21.8421 25.088C21.7871 24.918 21.7201 24.756 21.6371 24.602C21.6071 24.545 21.5801 24.49 21.5471 24.436C21.2951 24.028 20.9511 23.688 20.5401 23.44C20.5301 23.434 20.5221 23.423 20.5121 23.417C21.1141 22.149 22.1501 21.113 23.4171 20.512C23.4231 20.522 23.4341 20.53 23.4391 20.541C23.6871 20.952 24.0271 21.296 24.4351 21.548C24.4891 21.581 24.5451 21.609 24.6011 21.638C24.7561 21.721 24.9171 21.788 25.0871 21.843C25.1511 21.864 25.2151 21.887 25.2811 21.904C25.5141 21.961 25.7511 22 26.0001 22C26.2491 22 26.4861 21.961 26.7181 21.903C26.7841 21.886 26.8481 21.864 26.9121 21.842C27.0821 21.787 27.2431 21.72 27.3981 21.637C27.4541 21.608 27.5101 21.58 27.5641 21.547C27.9721 21.295 28.3121 20.951 28.5601 20.54C28.5661 20.529 28.5771 20.521 28.5821 20.511C29.8501 21.113 30.8861 22.149 31.4871 23.416C31.4761 23.422 31.4681 23.433 31.4581 23.438C31.0471 23.686 30.7031 24.026 30.4511 24.434C30.4181 24.488 30.3901 24.544 30.3611 24.6C30.2781 24.755 30.2111 24.916 30.1561 25.086C30.1351 25.15 30.1121 25.214 30.0951 25.28C30.0391 25.514 30.0001 25.751 30.0001 26C30.0001 26.249 30.0391 26.486 30.0971 26.718C30.1141 26.784 30.1361 26.848 30.1581 26.912C30.2131 27.082 30.2801 27.243 30.3631 27.398C30.3921 27.454 30.4201 27.51 30.4531 27.564C30.7051 27.972 31.0491 28.312 31.4601 28.56C31.4711 28.566 31.4791 28.577 31.4891 28.582C30.8871 29.851 29.8511 30.887 28.5831 31.488ZM33.0001 27C32.9401 27 32.8901 26.977 32.8331 26.966C32.7341 26.949 32.6391 26.925 32.5541 26.883C32.5271 26.869 32.5051 26.849 32.4791 26.832C32.4041 26.785 32.3301 26.735 32.2701 26.672C32.2331 26.632 32.2081 26.582 32.1781 26.536C32.1421 26.482 32.1001 26.432 32.0751 26.371C32.0281 26.256 32.0001 26.132 32.0001 26C32.0001 25.868 32.0281 25.744 32.0751 25.629C32.0991 25.568 32.1411 25.518 32.1781 25.464C32.2081 25.418 32.2331 25.368 32.2701 25.328C32.3301 25.265 32.4041 25.215 32.4791 25.168C32.5051 25.151 32.5271 25.131 32.5541 25.117C32.6391 25.075 32.7351 25.051 32.8331 25.034C32.8901 25.023 32.9401 25 33.0001 25C33.5521 25 34.0001 25.448 34.0001 26C34.0001 26.552 33.5521 27 33.0001 27Z" fill="#EB5757"/>
</svg>
