<svg width="52" height="52" viewBox="0 0 52 52" fill="none" xmlns="http://www.w3.org/2000/svg">
<rect x="1" y="1" width="50" height="50" rx="10" stroke="#CE1F1D"/>
<path d="M34 16H22C20.897 16 20 16.897 20 18V30C20 31.103 20.897 32 22 32H34C35.103 32 36 31.103 36 30V18C36 16.897 35.103 16 34 16ZM22 30V18H34L34.002 30H22Z" fill="#CE1F1D"/>
<path d="M18.0001 21.9999H16.0001V33.9999C16.0001 35.1029 16.8971 35.9999 18.0001 35.9999H30.0001V33.9999H18.0001V21.9999ZM26.9331 25.5189L25.2071 23.7929L23.7931 25.2069L27.0671 28.4809L32.7691 21.6409L31.2311 20.3589L26.9331 25.5189Z" fill="#CE1F1D"/>
</svg>
